<svg height="24" viewBox="0 0 24 24" width="24" xmlns="http://www.w3.org/2000/svg" fill="currentColor"><path d="M12 2a3 3 0 00-1 5.83V9H8v2h3v8.92a9.8 9.8 0 01-2.21-.65 8.37 8.37 0 01-1.97-1.18 6 6 0 01-1.38-1.54L7 15l-4-3v3c0 .97.27 1.88.82 2.72A8.23 8.23 0 006 19.95 10.81 10.81 0 0012 22c1.03 0 2.07-.2 3.12-.56 1.04-.36 2.01-.86 2.88-1.49a7.95 7.95 0 002.18-2.23c.55-.84.82-1.75.82-2.72v-3l-4 3 1.56 1.55a6 6 0 01-1.38 1.54c-.58.47-1.23.86-1.97 1.18a9.8 9.8 0 01-2.21.65V11h3V9h-3V7.82A3 3 0 0012 2zm0 2a1 1 0 110 2 1 1 0 010-2z" /></svg>