<svg height="24" viewBox="0 0 24 24" width="24" xmlns="http://www.w3.org/2000/svg" fill="currentColor"><path d="M11.74 13.36l2.4-5.65-1.08-2.21H10.5V4H14l.73 1.5h7.02l-1 3.5h-4.31l.67 1.37a5 5 0 11-1.29.78L15 9.5 12.25 16H9.9a5 5 0 11.1-1.5h.58L8.3 9h-.8a.76.76 0 01-.75-.75c0-.41.34-.75.75-.75h2.75c.41 0 .75.34.75.75s-.34.75-.75.75h-.28l1.77 4.36zM5 11.5A3.5 3.5 0 108.36 16H4v-1.5h4.47c-.25-1.7-1.71-3-3.47-3zm14 0c-.43 0-.85.08-1.23.22l1.93 3.96-1.35.66-1.85-3.79A3.49 3.49 0 0019 18.5a3.5 3.5 0 000-7z" /></svg>