<svg height="24" viewBox="0 0 24 24" width="24" xmlns="http://www.w3.org/2000/svg" fill="currentColor"><path d="M18 13l.79.1-.02.23.47.17.15-.16c.5.26.93.66 1.21 1.16l-.17.17.2.45.23-.02c.09.29.14.59.14.9l-.1.78-.24-.01-.19.47.19.15c-.27.51-.66.93-1.16 1.21l-.17-.18-.46.2.02.24A2.9 2.9 0 0118 19l-.79-.1.01-.25-.46-.18-.16.19a3 3 0 01-1.21-1.16l.18-.18-.2-.46-.24.02A3.17 3.17 0 0115 16l.11-.8.23.01.19-.46-.18-.15c.27-.51.65-.92 1.15-1.21l.17.17.46-.2-.02-.22c.28-.09.58-.14.89-.14zm0 1.5a1.5 1.5 0 100 3 1.5 1.5 0 000-3zM6 13l.79.1-.02.23.47.17.15-.16c.5.26.93.66 1.21 1.16l-.17.17.2.45.23-.02c.09.29.14.59.14.9l-.1.78-.25-.01-.18.47.19.15c-.27.51-.66.93-1.16 1.21l-.17-.18-.46.2.02.24A2.9 2.9 0 016 19l-.79-.1.01-.25-.46-.18-.16.19a3 3 0 01-1.21-1.16l.18-.18-.2-.46-.24.02A3.17 3.17 0 013 16l.11-.8.23.01.19-.46-.18-.15c.27-.51.65-.92 1.15-1.21l.17.17.46-.2-.02-.22c.28-.09.58-.14.89-.14zm0 1.5a1.5 1.5 0 100 3 1.5 1.5 0 000-3zM16 5l3 4h2a2 2 0 012 2v3h-2a3 3 0 10-6 0H9a3 3 0 10-6 0H1V9h9.5V5H16zm-4 1.5V9h5.46L15.5 6.5H12z" /></svg>