<svg xmlns="http://www.w3.org/2000/svg" width="24" height="24" viewBox="0 0 24 24"><path d="M15.9 18.45a2.45 2.45 0 100-4.9 2.45 2.45 0 000 4.9zm5.2-1.77l1.48 1.16c.13.11.17.29.08.45l-1.4 2.42a.35.35 0 01-.43.15l-1.74-.7c-.36.28-.76.51-1.18.69l-.27 1.85a.34.34 0 01-.34.3h-2.8a.35.35 0 01-.35-.3l-.26-1.85a5.14 5.14 0 01-1.18-.69l-1.75.7a.34.34 0 01-.42-.15l-1.4-2.42a.35.35 0 01.08-.45l1.48-1.16-.05-.68.05-.69-1.48-1.15a.35.35 0 01-.08-.45l1.4-2.42a.34.34 0 01.42-.16l1.75.71a4.8 4.8 0 011.18-.69l.26-1.86A.36.36 0 0114.5 9h2.8c.17 0 .32.13.34.29l.27 1.86a5 5 0 011.18.69l1.74-.71c.17-.06.34 0 .43.16l1.4 2.42c.09.15.05.34-.08.45l-1.48 1.15.05.69-.05.68zM6.69 8.07a1.57 1.57 0 10-.01-3.15 1.57 1.57 0 00.01 3.15zm3.34-1.13l.97.74c.07.07.09.19.03.29l-.9 1.56a.21.21 0 01-.27.1l-1.12-.45-.74.44-.19 1.19a.22.22 0 01-.22.19h-1.8a.23.23 0 01-.23-.19L5.4 9.62l-.76-.44-1.14.45c-.09.04-.2 0-.26-.1l-.9-1.56a.23.23 0 01.05-.29l.95-.74-.03-.44.03-.44-.95-.74a.23.23 0 01-.05-.29l.9-1.56c.06-.1.17-.14.26-.1l1.13.45.77-.44.16-1.19A.23.23 0 015.79 2h1.8c.11 0 .2.08.22.19L8 3.38l.74.44 1.12-.45c.1-.04.22 0 .27.1l.9 1.56c.06.1.04.22-.03.29l-.97.74.03.44-.03.44z"/></svg>