<svg height="24" viewBox="0 0 24 24" width="24" xmlns="http://www.w3.org/2000/svg" fill="currentColor"><path d="M12 16a2 2 0 012 2 2 2 0 01-2 2 2 2 0 01-2-2c0-1.1.9-2 2-2zm0-12a2 2 0 012 2 2 2 0 01-2 2 2 2 0 01-2-2c0-1.1.9-2 2-2zM6 16a2 2 0 012 2 2 2 0 01-2 2 2 2 0 01-2-2c0-1.1.9-2 2-2zm0-6a2 2 0 012 2 2 2 0 01-2 2 2 2 0 01-2-2c0-1.1.9-2 2-2zm0-6a2 2 0 012 2 2 2 0 01-2 2 2 2 0 01-2-2c0-1.1.9-2 2-2zm12 12a2 2 0 012 2 2 2 0 01-2 2 2 2 0 01-2-2c0-1.1.9-2 2-2zm0-6a2 2 0 012 2 2 2 0 01-2 2 2 2 0 01-2-2c0-1.1.9-2 2-2zm0-6a2 2 0 012 2 2 2 0 01-2 2 2 2 0 01-2-2c0-1.1.9-2 2-2z" /></svg>