<svg height="24" viewBox="0 0 24 24" width="24" xmlns="http://www.w3.org/2000/svg" fill="currentColor"><path d="M22 5.27l-1.5 1.48A10 10 0 016.75 20.5L5.27 22 4 20.72 20.72 4 22 5.27zm-4.1 12.12a7.96 7.96 0 001.15-9.17l-4.22 4.22c.11.16.17.35.17.56v3h1a2 2 0 011.9 1.39zM11 19.93V18c-.5 0-.93-.17-1.27-.46l-1.51 1.51c.85.45 1.78.75 2.78.88zm4-15.34V5a2 2 0 01-2 2h-2v2a1 1 0 01-1 1H8v2h2.18l-2.09 2.09-3.88-3.88a8 8 0 001.29 6.46L4.08 18.1A10 10 0 0118.1 4.08L16.67 5.5A8.15 8.15 0 0015 4.59z" /></svg>