<svg height="24" viewBox="0 0 24 24" width="24" xmlns="http://www.w3.org/2000/svg" fill="currentColor"><path d="M7.5 2A5.5 5.5 0 002 7.5V8h2v-.5a3.5 3.5 0 016.76-1.26A3.5 3.5 0 006.34 8l1.74 1a1.5 1.5 0 012.92.5V11h2V9.5a1.5 1.5 0 012.92-.5l1.74-1a3.5 3.5 0 00-4.42-1.76 3.48 3.48 0 015.73-1.21A3.5 3.5 0 0120 7.5V8h2v-.5a5.5 5.5 0 00-10-3.16A5.51 5.51 0 007.5 2zM6 12v2h1.42A4.98 4.98 0 0010 16.57V19H2l1.41 2.11c.37.56.99.89 1.66.89h13.86c.67 0 1.29-.33 1.66-.89L22 19h-8v-2.43A4.98 4.98 0 0016.58 14H18v-2H6z" /></svg>