<svg xmlns="http://www.w3.org/2000/svg" width="24" height="24" viewBox="0 0 24 24"><path d="M2 5.27L3.28 4 20 20.72 18.73 22l-4.83-4.83-2.61 2.61a5 5 0 01-7.07-7.07l1.49-1.49a7 7 0 00.4 2.43l-.47.47a2.98 2.98 0 00.97 4.9 2.98 2.98 0 003.27-.66l2.62-2.6-1.62-1.61c-.01.24-.11.49-.29.68a1 1 0 01-1.42 0A4.97 4.97 0 017.72 11L2 5.27zm10.71-1.05a5 5 0 017.07 7.07l-1.49 1.49a6.9 6.9 0 00-.4-2.42l.47-.48a2.98 2.98 0 00-.97-4.9 2.98 2.98 0 00-3.27.66l-3.33 3.33-1.41-1.42 3.33-3.33zm.7 4.95a1 1 0 011.42 0 5 5 0 011.23 5.06l-1.78-1.77a2.91 2.91 0 00-.87-1.87.97.97 0 010-1.42z"/></svg>