<svg height="24" viewBox="0 0 24 24" width="24" xmlns="http://www.w3.org/2000/svg" fill="currentColor"><path clip-rule="evenodd" d="M15.43 2.36c.76.15 1.58.4 2.17.84 1.93 1.45 1.91 3.62 1.9 5.4V9l.01.79.02.66c0 .48-.01 1-.1 1.5a4.1 4.1 0 01-1.88 2.88c-.62.42-1.44.67-2.23.83a26.44 26.44 0 01-4.32.36V22H5V2h5.03a21.13 21.13 0 01.84-.01c.54 0 1.3.01 2.1.06.8.05 1.67.14 2.46.3zM10.03 4H7v16h2v-6.05l1.05.05h.05a15.49 15.49 0 00.74.02c.5 0 1.17 0 1.9-.05s1.5-.13 2.18-.27c.7-.14 1.22-.33 1.53-.53.67-.45.9-.94 1.01-1.55.06-.33.07-.7.07-1.16A41.04 41.04 0 0017.5 9v-.12c0-2.1 0-3.25-1.1-4.08a3.77 3.77 0 00-1.37-.48c-.67-.14-1.44-.22-2.2-.27A31.15 31.15 0 0010.1 4h-.05z" fill-rule="evenodd" /><path clip-rule="evenodd" d="M11 8v2h2c.24 0 .37-.02.44-.04l.03-.17A7 7 0 0013.5 9a7 7 0 00-.06-.96A1.7 1.7 0 0013 8h-2zm-1 4H9V6h4c.79 0 1.65.16 2.13.95.2.34.29.7.33 1.02.03.32.04.68.04 1.03s0 .7-.04 1.03c-.04.31-.12.68-.33 1.02-.48.8-1.34.95-2.13.95h-3z" fill-rule="evenodd" /></svg>