<svg height="24" viewBox="0 0 24 24" width="24" xmlns="http://www.w3.org/2000/svg" fill="currentColor"><path d="M17 9c0 1.06-.39 2.32-1 3.62l1.49 1.49C18.37 12.36 19 10.57 19 9A7 7 0 007.25 3.86l1.43 1.43A4.96 4.96 0 0117 9zm-5-2.5c-.59 0-1.13.21-1.56.56l3.5 3.5a2.46 2.46 0 00-.17-3.33A2.5 2.5 0 0012 6.5zM3.41 2.86L2 4.27l3.18 3.18C5.07 7.95 5 8.47 5 9c0 5.25 7 13 7 13s1.67-1.85 3.38-4.35L18.73 21l1.41-1.41L3.41 2.86zM12 18.88c-2.01-2.58-4.8-6.74-4.98-9.59l6.92 6.92c-.65.98-1.33 1.89-1.94 2.67z" /></svg>