<svg xmlns="http://www.w3.org/2000/svg" width="24" height="24" viewBox="0 0 24 24"><path d="M22 10.28l-.74.03a7.53 7.53 0 01-7.13-5.02A7.52 7.52 0 0113.72 2c.05-.47-.5-1-1.01-1a.69.69 0 00-.39.12 7.55 7.55 0 00-2.48 9.34 5.48 5.48 0 00-3.15 3.6L6 14a4 4 0 100 8h13a3 3 0 10-1.58-5.55l.08-.95c0-.22 0-.45-.04-.67a7.45 7.45 0 005.42-3.15c.39-.55-.23-1.4-.84-1.4H22zM19 18a1 1 0 010 2H6a2 2 0 110-4h2.5v-.5a3.5 3.5 0 015.84-2.58c.07.08.16.13.21.2l.21.25c.06.08.13.16.18.25.06.09.1.18.15.28.05.1.11.18.15.28.17.41.26.85.26 1.32V18H19zm-2.17-5.14A5.51 5.51 0 0012 10h-.13a5.5 5.5 0 01-.01-5.45A9.38 9.38 0 0014.5 9.5a9.35 9.35 0 004.95 2.64c-.79.46-1.69.7-2.62.72z"/></svg>